<?xml version="1.0" standalone="no"?>
<!DOCTYPE svg PUBLIC "-//W3C//DTD SVG 20010904//EN"
 "http://www.w3.org/TR/2001/REC-SVG-20010904/DTD/svg10.dtd">
<svg version="1.0" xmlns="http://www.w3.org/2000/svg"
 width="216.000000pt" height="216.000000pt" viewBox="0 0 216.000000 216.000000"
 preserveAspectRatio="xMidYMid meet">
<metadata>
Created by potrace 1.14, written by Peter Selinger 2001-2017
</metadata>
<g transform="translate(0.000000,216.000000) scale(0.100000,-0.100000)"
fill="#000000" stroke="none">
<path d="M415 1146 l0 -511 220 0 c121 -1 226 1 233 3 12 4 122 211 122 231 0
4 -64 8 -142 7 -79 -1 -148 0 -153 1 -6 2 -10 34 -10 76 l1 72 192 1 c105 0
193 2 195 5 2 2 29 55 61 117 l57 112 -228 1 c-125 1 -239 2 -253 2 -24 2 -25
4 -25 77 l0 75 373 1 c205 1 371 -2 370 -6 -2 -3 -90 -178 -195 -388 -106
-210 -193 -383 -193 -384 0 -2 177 -3 393 -3 l392 0 1 118 c0 64 -2 118 -5
118 -3 1 -82 3 -176 5 -93 1 -173 3 -177 3 -10 1 -1 24 92 216 45 94 95 197
110 230 15 33 55 118 89 188 33 70 61 132 61 136 0 5 -316 8 -703 8 l-703 0 1
-511z"/>
<path d="M435 568 c-13 -45 -11 -68 7 -74 11 -3 25 -1 31 5 8 8 5 11 -11 11
-12 0 -22 5 -22 10 0 6 7 10 15 10 8 0 15 5 15 11 0 5 -4 7 -10 4 -5 -3 -10
-1 -10 4 0 6 8 11 18 11 14 0 15 2 2 10 -20 13 -30 12 -35 -2z"/>
<path d="M516 572 c-7 -7 -8 -72 -1 -72 11 0 45 41 45 54 0 14 -34 28 -44 18z
m34 -16 c0 -3 -4 -8 -10 -11 -5 -3 -10 -1 -10 4 0 6 5 11 10 11 6 0 10 -2 10
-4z"/>
<path d="M598 567 c-2 -6 -1 -28 3 -47 6 -32 7 -33 14 -12 9 28 25 29 25 0 0
-35 14 -10 15 28 1 36 -9 45 -19 18 -3 -8 -10 -12 -16 -9 -6 4 -8 10 -5 15 3
5 1 11 -4 14 -5 3 -11 0 -13 -7z"/>
<path d="M702 568 c-30 -30 1 -94 33 -68 25 20 13 80 -15 80 -3 0 -11 -5 -18
-12z m28 -33 c0 -14 -4 -25 -10 -25 -5 0 -10 11 -10 25 0 14 5 25 10 25 6 0
10 -11 10 -25z"/>
<path d="M795 572 c-10 -6 -10 -15 -6 -68 0 -8 6 -12 11 -9 6 4 8 11 5 16 -4
5 -1 9 4 9 6 0 11 -7 11 -17 0 -27 13 -5 15 25 3 40 -17 61 -40 44z m25 -22
c0 -5 -4 -10 -10 -10 -5 0 -10 5 -10 10 0 6 5 10 10 10 6 0 10 -4 10 -10z"/>
<path d="M876 538 c1 -24 3 -45 4 -48 5 -11 16 56 12 73 -8 32 -17 17 -16 -25z"/>
<path d="M930 570 c0 -6 7 -10 16 -10 15 0 15 -2 0 -25 -22 -34 -20 -42 9 -42
14 0 25 3 25 8 0 5 -7 9 -15 9 -14 0 -13 3 1 25 9 14 14 29 10 32 -11 11 -46
13 -46 3z"/>
<path d="M1020 541 c0 -43 11 -57 38 -46 14 6 13 9 -8 18 -21 8 -22 11 -7 14
9 3 17 9 17 14 0 6 -4 8 -9 4 -5 -3 -12 -1 -16 5 -3 5 1 10 9 10 9 0 16 5 16
10 0 6 -9 10 -20 10 -17 0 -20 -7 -20 -39z"/>
<path d="M1158 562 c-5 -27 3 -72 13 -67 4 3 6 13 3 23 -4 11 2 8 15 -8 l20
-25 -2 37 c-2 20 -6 40 -10 44 -14 15 -36 12 -39 -4z m32 -12 c0 -5 -5 -10
-11 -10 -5 0 -7 5 -4 10 3 6 8 10 11 10 2 0 4 -4 4 -10z"/>
<path d="M1254 568 c-15 -23 -12 -58 5 -67 21 -12 36 -3 43 27 9 34 -31 68
-48 40z m32 -35 c-4 -24 -26 -29 -26 -5 0 10 3 22 6 25 11 10 22 -2 20 -20z"/>
<path d="M1342 539 c2 -31 8 -43 20 -45 10 -1 20 2 24 7 3 5 -2 9 -10 9 -16 0
-20 10 -17 42 1 9 -3 19 -9 23 -8 5 -10 -6 -8 -36z"/>
<path d="M1427 573 c-11 -10 -8 -71 3 -78 6 -4 19 -4 28 0 14 6 13 9 -8 18
-21 8 -22 11 -7 14 9 3 17 9 17 14 0 6 -4 8 -9 4 -5 -3 -12 -1 -16 5 -3 6 4
10 17 10 18 0 20 2 8 10 -18 12 -24 12 -33 3z"/>
<path d="M1507 573 c-8 -15 -6 -73 4 -78 5 -4 9 3 9 15 0 12 4 19 9 15 6 -3
15 3 21 14 8 16 7 22 -9 31 -23 12 -28 12 -34 3z m33 -23 c0 -5 -4 -10 -10
-10 -5 0 -10 5 -10 10 0 6 5 10 10 10 6 0 10 -4 10 -10z"/>
<path d="M1677 536 c-15 -45 -15 -45 5 -33 16 9 22 9 25 -1 3 -6 8 -10 13 -7
7 5 -10 68 -22 80 -3 4 -13 -14 -21 -39z"/>
<path d="M1755 565 c4 -11 11 -33 15 -50 6 -26 8 -28 14 -10 4 11 12 30 16 42
5 12 5 25 1 28 -5 3 -12 -3 -15 -12 -6 -14 -8 -14 -22 3 -15 19 -15 19 -9 -1z"/>
<path d="M1590 536 c0 -34 20 -53 43 -39 6 4 2 9 -10 14 -16 6 -19 14 -16 33
3 15 1 26 -6 26 -6 0 -11 -15 -11 -34z"/>
</g>
</svg>
